# xmcd CD database file
#
# Track frame offsets:
#	150
#	19095
#	35852
#	49795
#	67737
#	90327
#	101127
#	122060
#	137155
#	155075
#	167562
#
# Disc length: 2621 seconds
#
# Revision: 0
# Processed by: cddbd v1.5PL3 Copyright (c) Steve Scherf et al.
# Submitted via: CDex 1.51
#
DISCID=8f0a3b0b
DTITLE=ペンギンノイズ - ハイ・ジャンプ
DYEAR=1997
DGENRE=Rock
TTITLE0=NA NA NA
TTITLE1=ウォータースライダー
TTITLE2=僕が求めるもの
TTITLE3=終わるべきの迷路
TTITLE4=ママの時計
TTITLE5=一度きりの朝
TTITLE6=壊れた世界
TTITLE7=ありふれた静けさを
TTITLE8=それも悪くない
TTITLE9=コールドスプリングフィーバー
TTITLE10=遥か昔の出来事のように
EXTD=YEAR: 1997
EXTT0=
EXTT1=
EXTT2=
EXTT3=
EXTT4=
EXTT5=
EXTT6=
EXTT7=
EXTT8=
EXTT9=
EXTT10=
PLAYORDER=
